HIERARCHY
ROOT Hips
{
	OFFSET 0.000000 0.000000 0.000000 
	CHANNELS 6 Xposition Yposition Zposition Yrotation Zrotation Xrotation 
	JOINT Lumbar
	{
		OFFSET 0.000000 0.000000 0.000000 
		CHANNELS 3 Zrotation Xrotation Yrotation
		JOINT Neck
		{
			OFFSET 0.000000 0.445665 0.000000 
			CHANNELS 3 Zrotation Xrotation Yrotation
			End Site
			{
				OFFSET 0.000000 0.227535 0.000000 
			}
		}
		JOINT RightShoulder
		{
			OFFSET 0.019635 0.377685 0.194865 
			CHANNELS 3 Zrotation Xrotation Yrotation
			JOINT RightElbow
			{
				OFFSET 0.000000 -0.243375 0.000000 
				CHANNELS 2 Zrotation Yrotation
				JOINT RightWrist
				{
					OFFSET 0.000000 -0.264825 0.000000 
					CHANNELS 2 Zrotation Xrotation
					End Site
					{
						OFFSET 0.006600 -0.176220 0.000990 
					}
				}
			}
		}
		JOINT LeftShoulder
		{
			OFFSET 0.019635 0.377685 -0.194865 
			CHANNELS 3 Zrotation Xrotation Yrotation
			JOINT LeftElbow
			{
				OFFSET 0.000000 -0.243375 0.000000 
				CHANNELS 2 Zrotation Yrotation
				JOINT LeftWrist
				{
					OFFSET 0.000000 -0.264825 0.000000 
					CHANNELS 2 Zrotation Xrotation
					End Site
					{
						OFFSET 0.006600 -0.176220 -0.000990 
					}
				}
			}
		}
	}
	JOINT RightHip
	{
		OFFSET 0.052140 -0.069960 0.075570 
		CHANNELS 3 Zrotation Xrotation Yrotation
		JOINT RightKnee
		{
			OFFSET 0.000000 -0.402270 0.000000 
			CHANNELS 1 Zrotation
			JOINT RightAnkle
			{
				OFFSET 0.000000 -0.404085 0.000000 
				CHANNELS 3 Zrotation Xrotation Yrotation
				End Site
				{
					OFFSET 0.204105 -0.089430 0.008415 
				}
			}
		}
	}
	JOINT LeftHip
	{
		OFFSET 0.052140 -0.069960 -0.075570 
		CHANNELS 3 Zrotation Xrotation Yrotation
		JOINT LeftKnee
		{
			OFFSET 0.000000 -0.402270 0.000000 
			CHANNELS 1 Zrotation
			JOINT LeftAnkle
			{
				OFFSET 0.000000 -0.404085 0.000000 
				CHANNELS 3 Zrotation Xrotation Yrotation
				End Site
				{
					OFFSET 0.204105 -0.089430 -0.008415 
				}
			}
		}
	}
}
MOTION
Frames: 27
Frame Time: 0.02
0.09527 -0.00051 0.2364 -175.06661 -26.41924 9.06789 43.34012 3.21543 6.66978 -10.25208 -17.47707 -0.83048 -63.64925 -66.39031 34.30886 116.92058 108.70438 -33.43176 -6.93361 -9.26203 118.75752 -3.3067 24.20542 -43.89747 9.00088 12.22416 37.1211 -25.19393 8.50503 -30.74922 -9.68561 -5.2595 -3.59597 35.06256 -8.39476 21.05309 -28.09309 -6.30915 1.17577 1.19918
0.09622 -0.00043 0.23591 -175.12465 -26.38017 9.06961 43.17814 3.19005 6.66017 -10.32946 -17.52348 -0.83049 -63.65828 -66.39223 34.39237 116.9298 108.51616 -33.57048 -6.9362 -9.09943 118.52503 -3.49247 24.26684 -46.15816 8.49877 12.52561 37.1813 -25.15954 8.57725 -30.78196 -9.68232 -5.2539 -3.59695 35.0787 -8.34679 21.12077 -28.10585 -6.31165 1.17379 1.19709
0.09721 -0.0003 0.23537 -175.18511 -26.36306 9.0618 43.01577 3.17119 6.65807 -10.40281 -17.56752 -0.8305 -63.66302 -66.38728 34.48464 116.94236 108.28069 -33.71142 -6.95586 -8.93 118.28312 -3.70163 24.35492 -48.93764 7.8943 12.92202 37.26027 -25.09333 8.72015 -30.80377 -9.68953 -5.25037 -3.60269 35.11767 -8.28047 21.20861 -28.11482 -6.31583 1.17051 1.19367
0.09819 -0.00018 0.23485 -175.243 -26.33705 9.05757 42.85495 3.14897 6.65076 -10.47762 -17.61125 -0.83052 -63.6693 -66.3878 34.57196 116.95413 108.07252 -33.84919 -6.96603 -8.76882 118.05026 -3.8988 24.42985 -51.3991 7.35599 13.26291 37.3299 -25.0424 8.82391 -30.82905 -9.69157 -5.2457 -3.60587 35.14733 -8.22389 21.2788 -28.12461 -6.31898 1.1684 1.19123
0.09917 -8e-05 0.23433 -175.30677 -26.30639 9.05691 42.68792 3.12808 6.65136 -10.55417 -17.66086 -0.83053 -63.67981 -66.37831 34.66126 116.96291 107.84322 -33.99958 -6.98314 -8.58551 117.79597 -4.10132 24.50953 -54.20928 6.73453 13.65598 37.40304 -24.98872 8.95579 -30.86085 -9.69506 -5.24182 -3.61063 35.17265 -8.16192 21.3837 -28.13839 -6.32325 1.16387 1.18726
0.10014 6e-05 0.23379 -175.35898 -26.29082 9.04639 42.53382 3.10614 6.63726 -10.62607 -17.69768 -0.83054 -63.67457 -66.3901 34.75508 116.97865 107.63738 -34.11982 -6.98924 -8.44743 117.58483 -4.29708 24.58533 -56.41762 6.26144 13.96314 37.47369 -24.93326 9.04539 -30.87647 -9.698 -5.23671 -3.61322 35.21259 -8.1064 21.42255 -28.14293 -6.32565 1.16397 1.18608
0.10104 0.0003 0.23321 -175.37898 -26.30966 9.01086 42.41653 3.07939 6.57948 -10.68597 -17.69946 -0.83055 -63.69286 -66.43551 34.78278 117.01294 107.61387 -34.19649 -6.97073 -8.42878 117.49215 -4.48464 24.646 -56.81364 6.23041 14.00694 37.52801 -24.87625 9.01553 -30.84923 -9.69817 -5.229 -3.60937 35.28471 -8.07619 21.26111 -28.12233 -6.32177 1.17848 1.19359
0.10191 0.00058 0.23261 -175.38732 -26.34332 8.96572 42.31218 3.0515 6.50695 -10.7412 -17.68853 -0.83056 -63.68681 -66.50588 34.82465 117.05403 107.60173 -34.23717 -6.9394 -8.45718 117.44387 -4.66184 24.70148 -56.58979 6.35099 13.96147 37.58004 -24.81905 8.93917 -30.80621 -9.69729 -5.2198 -3.60308 35.37125 -8.05263 21.03471 -28.09262 -6.31607 1.1975 1.20384
0.1028 0.00084 0.23203 -175.40081 -26.37135 8.92492 42.20128 3.02438 6.44178 -10.79876 -17.68361 -0.83057 -63.64502 -66.58389 34.91419 117.09194 107.50922 -34.26544 -6.90687 -8.46871 117.37745 -4.83339 24.75788 -56.66486 6.39748 13.9588 37.63618 -24.76487 8.87392 -30.77093 -9.69597 -5.21036 -3.5974 35.45278 -8.02385 20.84686 -28.06742 -6.31171 1.21356 1.21236
0.10368 0.00112 0.23141 -175.41481 -26.39526 8.88372 42.09305 2.99634 6.37356 -10.85578 -17.67756 -0.83058 -63.78743 -66.58734 34.79081 117.13054 107.71152 -34.40718 -6.9023 -8.46101 117.30232 -5.04938 24.82106 -56.6861 6.46229 13.95022 37.67987 -24.69785 8.8501 -30.73286 -9.69858 -5.20465 -3.59386 35.5284 -8.00318 20.62252 -28.04055 -6.30533 1.23326 1.22278
0.10458 0.00138 0.23086 -175.42519 -26.43125 8.84144 41.98251 2.96997 6.30876 -10.91226 -17.67098 -0.83059 -63.55703 -66.74483 35.09518 117.16901 107.32937 -34.31408 -6.83907 -8.50459 117.25573 -5.17013 24.8688 -56.66463 6.52629 13.93125 37.74889 -24.65713 8.73219 -30.69701 -9.69301 -5.19108 -3.5854 35.61969 -7.9681 20.45732 -28.01503 -6.30258 1.24667 1.23002
0.10552 0.00157 0.23049 -175.42647 -26.49475 8.79634 41.86057 2.94762 6.25178 -10.97324 -17.66517 -0.83059 -62.15811 -67.38511 36.74424 117.20756 105.1006 -33.49394 -6.59208 -8.67834 117.27936 -5.03078 24.8726 -56.68171 6.55122 13.90684 37.88701 -24.69646 8.3291 -30.67093 -9.66157 -5.15345 -3.56219 35.74868 -7.88594 20.48175 -27.99558 -6.31119 1.23999 1.22692
0.10648 0.00175 0.2302 -175.42496 -26.57025 8.75097 41.73601 2.92715 6.20005 -11.03267 -17.65956 -0.8306 -60.40988 -68.16861 38.79519 117.2453 102.323 -32.4544 -6.29059 -8.90187 117.32968 -4.79647 24.86122 -56.67391 6.57041 13.87398 38.05105 -24.76125 7.83897 -30.64773 -9.62251 -5.10839 -3.53437 35.89327 -7.79018 20.56619 -27.97778 -6.32333 1.22713 1.22068
0.10744 0.00193 0.22988 -175.42581 -26.64153 8.70711 41.61408 2.90634 6.14882 -11.09005 -17.65424 -0.83061 -58.91938 -68.84381 40.54858 117.28202 99.9521 -31.57332 -6.03088 -9.10289 117.36655 -4.60442 24.85856 -56.67144 6.59279 13.84407 38.20379 -24.80946 7.413 -30.62335 -9.58928 -5.06856 -3.50984 36.03187 -7.70445 20.61582 -27.95918 -6.33324 1.21822 1.21647
0.1084 0.00213 0.22953 -175.42115 -26.70792 8.65681 41.48726 2.88325 6.0834 -11.16013 -17.64628 -0.83061 -57.01871 -69.69869 42.77478 117.32491 96.93168 -30.44535 -5.70083 -9.30601 117.41113 -4.41297 24.84875 -56.67201 6.6186 13.81631 38.35367 -24.87795 6.88345 -30.5978 -9.54624 -5.02107 -3.48033 36.16612 -7.60273 20.6938 -27.94051 -6.3457 1.20471 1.20987
0.10934 0.00229 0.22926 -175.42811 -26.78741 8.62028 41.36889 2.86547 6.05087 -11.2019 -17.64476 -0.83062 -55.87899 -70.21757 44.12758 117.35459 95.11593 -29.77695 -5.50211 -9.51478 117.44464 -4.20143 24.84941 -56.66946 6.63312 13.78141 38.51667 -24.91131 6.54719 -30.57567 -9.52158 -4.9875 -3.45995 36.31321 -7.53094 20.72937 -27.92245 -6.35376 1.19914 1.20741
0.11026 0.0024 0.22918 -175.46212 -26.89819 8.6195 41.28275 2.86098 6.09126 -11.17901 -17.65488 -0.83062 -57.0193 -69.73401 42.82997 117.34859 96.91451 -30.45758 -5.70014 -9.73567 117.44695 -3.92935 24.88969 -56.6582 6.62415 13.7444 38.70129 -24.83252 6.78642 -30.5615 -9.55149 -4.99682 -3.4676 36.48973 -7.54551 20.61992 -27.90606 -6.34813 1.21792 1.21764
0.11116 0.00247 0.22918 -175.50888 -27.02217 8.63306 41.20379 2.86187 6.16742 -11.12528 -17.67262 -0.83062 -58.92055 -68.91461 40.66476 117.32925 99.91628 -31.6033 -6.02846 -9.95775 117.43556 -3.64744 24.93942 -56.64966 6.60192 13.69799 38.89977 -24.71919 7.21931 -30.5509 -9.59975 -5.01992 -3.48429 36.67908 -7.59055 20.46829 -27.89021 -6.33794 1.24466 1.23202
0.11207 0.00256 0.22915 -175.55388 -27.14117 8.64171 41.11581 2.86099 6.23863 -11.07703 -17.69099 -0.83062 -60.41191 -68.27483 38.98982 117.3155 102.2657 -32.51937 -6.28347 -10.17452 117.42672 -3.38639 24.98061 -56.64607 6.58107 13.64618 39.09733 -24.62751 7.55076 -30.53928 -9.63834 -5.03504 -3.49577 36.86378 -7.62133 20.34527 -27.8739 -6.3305 1.26718 1.24421
0.11297 0.00265 0.22909 -175.58249 -27.25578 8.6437 41.0512 2.85763 6.26366 -11.06461 -17.69227 -0.83062 -62.16008 -67.52616 36.92731 117.30342 105.03915 -33.50603 -6.59583 -10.41699 117.43561 -3.04553 25.04042 -56.61198 6.58041 13.63501 39.27307 -24.51149 7.93705 -30.52524 -9.68242 -5.05719 -3.51179 37.04356 -7.65341 20.18537 -27.85848 -6.32095 1.29222 1.2577
0.11388 0.00272 0.22911 -175.64738 -27.38315 8.66279 40.9407 2.86034 6.39159 -10.97046 -17.7307 -0.83062 -63.56048 -66.92256 35.45622 117.28507 107.22538 -34.4576 -6.82072 -10.60079 117.40238 -2.87892 25.06236 -56.64638 6.53374 13.53691 39.49725 -24.43777 8.25472 -30.517 -9.71935 -5.068 -3.52051 37.23706 -7.69017 20.09032 -27.84141 -6.31388 1.31372 1.26936
0.11483 0.0027 0.22934 -175.81703 -27.53703 8.72719 40.69272 2.88131 6.80927 -10.65635 -17.87193 -0.83062 -63.79823 -66.8028 35.86972 117.24948 107.46875 -35.20993 -6.76983 -10.66134 117.2694 -3.12104 24.9906 -56.8359 6.37085 13.20235 39.8512 -24.48778 8.35008 -30.52458 -9.73358 -5.04499 -3.50741 37.45978 -7.73262 20.19469 -27.8189 -6.31808 1.32434 1.27536
0.11578 0.00266 0.22963 -176.02122 -27.70421 8.80796 40.39992 2.90761 7.32641 -10.26145 -18.0497 -0.83062 -63.66331 -66.84018 36.90028 117.20863 107.08545 -35.90874 -6.6272 -10.65439 117.09177 -3.55496 24.87799 -57.10006 6.16095 12.78025 40.25324 -24.58147 8.3681 -30.53775 -9.73982 -5.01006 -3.48665 37.6967 -7.77873 20.36368 -27.79481 -6.32195 1.33001 1.2788
0.11672 0.00264 0.2299 -176.20466 -27.86896 8.88025 40.13364 2.92971 7.78874 -9.9047 -18.20965 -0.83062 -63.71287 -66.80355 37.619 117.17232 107.01202 -36.62708 -6.52836 -10.65358 116.92597 -3.94854 24.77557 -57.35287 5.9673 12.39773 40.63373 -24.65633 8.41161 -30.54792 -9.74862 -4.97992 -3.46899 37.93076 -7.82316 20.4961 -27.77197 -6.32675 1.33869 1.28383
0.1177 0.0026 0.23017 -176.41026 -28.01919 8.95763 39.84195 2.95977 8.29348 -9.54065 -18.37584 -0.83062 -63.72984 -66.76424 38.43514 117.12652 106.88245 -37.38632 -6.42496 -10.76001 116.79602 -4.13726 24.70894 -57.51297 5.7938 12.01662 41.01411 -24.72669 8.49986 -30.56018 -9.76218 -4.9525 -3.45301 38.1505 -7.86888 20.65718 -27.74703 -6.33769 1.3485 1.28933
0.1186 0.00258 0.23044 -176.57726 -28.20229 9.02787 39.59206 2.9741 8.73229 -9.17324 -18.53656 -0.83062 -63.71017 -66.77472 39.21264 117.09933 106.69524 -38.03587 -6.30787 -10.62254 116.58023 -4.80685 24.55777 -57.88072 5.56856 11.61078 41.4051 -24.816 8.47747 -30.56936 -9.76417 -4.91688 -3.43187 38.40277 -7.91215 20.77484 -27.72595 -6.32377 1.34956 1.29051
0.11925 0.00263 0.23069 -176.63341 -28.47593 9.07624 39.47212 2.94669 8.97117 -8.81473 -18.6818 -0.83062 -63.73368 -66.86313 39.67636 117.12602 106.5894 -38.44633 -6.17263 -9.86523 116.14496 -6.68522 24.18526 -58.82983 5.20192 11.16812 41.82066 -24.95763 8.13845 -30.56863 -9.73189 -4.85752 -3.39584 38.74573 -7.94986 20.75363 -27.71705 -6.3525 1.37477 1.30488
